<svg width="224" height="224" viewBox="0 0 224 224" fill="none" xmlns="http://www.w3.org/2000/svg">
<path d="M0.73438 98.8239C-6.27215 160.004 37.644 215.28 98.8239 222.286C129.592 225.81 158.868 216.454 181.261 198.499L161.054 173.065C145.045 184.317 124.465 189.994 102.806 187.514C58.0872 182.392 25.7069 144.435 30.4827 102.734C33.0128 80.6414 45.464 61.9302 63.2636 49.9798L42.5427 23.8991C19.9906 41.6532 4.25811 68.0553 0.73438 98.8239Z" fill="url(#paint0_angular_3_17)"/>
<path d="M8.54235 108.346L24.9124 112.684L24.7459 114.309L8.37582 109.971L8.54235 108.346ZM13.936 101.219L15.5354 101.636L14.2631 114.051L12.6638 113.634L13.936 101.219ZM9.14182 102.496L25.5118 106.834L25.3453 108.459L8.9753 104.121L9.14182 102.496ZM19.6245 102.753L21.2238 103.17L19.9516 115.585L18.3523 115.168L19.6245 102.753Z" fill="white"/>
<path d="M7.92667 116.121L24.6305 115.236L25.2721 125.245L23.4778 125.341L22.9657 117.353L17.3217 117.652L17.7856 124.89L15.9913 124.985L15.5273 117.747L8.05625 118.143L7.92667 116.121Z" fill="white"/>
<path d="M9.33051 132.538L25.712 129.155L27.004 134.657C27.3028 135.929 27.3294 137.019 27.0838 137.925C26.8436 138.831 26.3909 139.558 25.7258 140.107C25.0607 140.655 24.2456 141.029 23.2804 141.229C22.3152 141.428 21.4133 141.409 20.5746 141.171C19.736 140.933 19.0081 140.452 18.391 139.729C17.7793 139.005 17.3253 138.012 17.0291 136.751L15.9834 132.298L17.7752 131.928L18.8059 136.317C19.01 137.186 19.3023 137.86 19.6827 138.337C20.0644 138.819 20.5179 139.132 21.0432 139.273C21.575 139.419 22.1689 139.424 22.8248 139.289C23.4807 139.153 24.0253 138.913 24.4586 138.568C24.892 138.222 25.1791 137.755 25.32 137.164C25.4662 136.573 25.436 135.837 25.2294 134.957L24.4153 131.49L9.79357 134.51L9.33051 132.538ZM18.4893 138.684L12.0715 144.211L11.5338 141.921L17.9665 136.457L18.4893 138.684Z" fill="white"/>
<path d="M12.8746 147.57L28.6536 142.017L32.3716 151.403L30.6766 151.999L27.7046 144.497L22.373 146.373L25.1525 153.389L23.4575 153.986L20.678 146.969L15.3156 148.856L18.3358 156.48L16.6408 157.077L12.8746 147.57Z" fill="white"/>
<path d="M17.8334 160.15L32.6157 152.322L37.7655 161.005L36.1775 161.846L32.061 154.905L27.0662 157.55L30.9161 164.041L29.3282 164.882L25.4783 158.391L20.4547 161.052L24.6378 168.105L23.0499 168.946L17.8334 160.15Z" fill="white"/>
<path d="M26.6975 173.525L40.1309 163.558L41.4227 165.118L29.4324 174.015L34.3913 180.004L32.9483 181.075L26.6975 173.525Z" fill="white"/>
<path d="M36.0055 183.093L34.4156 181.685L50.753 173.841L52.3185 175.227L45.1779 191.215L43.588 189.807L49.7275 176.463L49.6297 176.376L36.0055 183.093ZM41.178 178.958L47.5865 184.633L46.3255 185.913L39.917 180.238L41.178 178.958Z" fill="white"/>
<path d="M69.7352 186.542L60.6019 200.556L58.9123 199.562L58.2269 183.937L58.0861 183.855L50.915 194.857L49.1691 193.83L58.3024 179.817L59.992 180.811L60.6878 196.479L60.8286 196.562L68.0175 185.532L69.7352 186.542Z" fill="white"/>
<path d="M83.9156 198.804L82.0064 198.127C82.1053 197.544 82.0938 196.997 81.9718 196.486C81.855 195.977 81.6509 195.512 81.3595 195.091C81.0751 194.667 80.7195 194.299 80.2925 193.986C79.8655 193.673 79.3902 193.423 78.8667 193.238C77.9121 192.899 76.9543 192.831 75.9933 193.033C75.0374 193.237 74.15 193.722 73.331 194.489C72.5171 195.257 71.8469 196.316 71.3204 197.665C70.7939 199.014 70.5753 200.233 70.6647 201.322C70.7592 202.412 71.0984 203.332 71.6821 204.081C72.271 204.833 73.0428 205.378 73.9974 205.716C74.5208 205.902 75.0515 206.009 75.5894 206.038C76.1272 206.067 76.6482 206.012 77.1522 205.873C77.6634 205.731 78.1377 205.504 78.5751 205.191C79.0197 204.875 79.4034 204.468 79.7261 203.971L81.6353 204.647C81.1808 205.393 80.641 206.013 80.0157 206.507C79.3905 207.001 78.7095 207.369 77.9728 207.61C77.238 207.847 76.4745 207.954 75.6823 207.933C74.8953 207.914 74.104 207.763 73.3085 207.481C71.9639 207.005 70.8948 206.256 70.1012 205.236C69.3076 204.216 68.8441 203 68.7108 201.59C68.5775 200.18 68.8315 198.654 69.4728 197.01C70.1141 195.367 70.9686 194.053 72.0362 193.068C73.1038 192.084 74.2878 191.453 75.5881 191.175C76.8885 190.897 78.2109 190.996 79.5556 191.473C80.3511 191.754 81.0533 192.133 81.6622 192.609C82.2762 193.086 82.7794 193.646 83.1717 194.287C83.566 194.924 83.8304 195.624 83.9647 196.387C84.101 197.146 84.0846 197.951 83.9156 198.804Z" fill="white"/>
<path d="M83.8373 209.59L87.2338 193.212L97.1503 195.102L96.7854 196.862L88.8586 195.35L87.711 200.885L95.1243 202.298L94.7595 204.058L87.3461 202.644L86.1919 208.21L94.2471 209.746L93.8822 211.506L83.8373 209.59Z" fill="white"/>
<path d="M98.2905 212.13L99.101 195.422L104.746 195.694C106.052 195.757 107.112 196.031 107.928 196.518C108.745 196.999 109.335 197.635 109.7 198.427C110.065 199.218 110.224 200.106 110.176 201.091C110.128 202.075 109.885 202.938 109.445 203.68C109.006 204.422 108.36 204.991 107.506 205.386C106.653 205.776 105.58 205.939 104.285 205.877L99.7166 205.657L99.8053 203.829L104.309 204.046C105.201 204.089 105.925 203.993 106.481 203.758C107.043 203.524 107.458 203.173 107.726 202.706C108 202.234 108.153 201.664 108.185 200.995C108.218 200.326 108.121 199.735 107.895 199.223C107.669 198.71 107.288 198.305 106.752 198.007C106.216 197.703 105.497 197.529 104.594 197.486L101.037 197.314L100.314 212.227L98.2905 212.13ZM106.519 205.003L110.267 212.707L107.917 212.593L104.235 204.893L106.519 205.003Z" fill="white"/>
<defs>
<radialGradient id="paint0_angular_3_17" cx="0" cy="0" r="1" gradientUnits="userSpaceOnUse" gradientTransform="translate(112.01 106.01) rotate(130.301) scale(103.595 85.3151)">
<stop offset="0.00149062" stop-color="#BB9B4B"/>
<stop offset="0.279031" stop-color="#BB9B4B" stop-opacity="0"/>
<stop offset="0.714249" stop-color="#BB9B4B" stop-opacity="0"/>
</radialGradient>
</defs>
</svg>
