<svg width="224" height="224" viewBox="0 0 224 224" fill="none" xmlns="http://www.w3.org/2000/svg">
<path d="M1.68644 99.7759C-5.32008 160.956 38.5961 216.232 99.7759 223.238C130.545 226.762 159.82 217.406 182.213 199.452L162.006 174.017C145.997 185.269 125.417 190.946 103.758 188.466C59.0393 183.344 26.659 145.387 31.4347 103.686C33.9649 81.5935 46.4161 62.8822 64.2157 50.9319L43.4948 24.8511C20.9426 42.6052 5.21017 69.0073 1.68644 99.7759Z" fill="url(#paint0_angular_3_33)"/>
<path d="M9.49441 109.298L25.8644 113.636L25.6979 115.261L9.32789 110.923L9.49441 109.298ZM14.8881 102.171L16.4874 102.588L15.2152 115.003L13.6159 114.586L14.8881 102.171ZM10.0939 103.448L26.4639 107.786L26.2974 109.411L9.92736 105.073L10.0939 103.448ZM20.5766 103.705L22.1759 104.122L20.9037 116.537L19.3044 116.12L20.5766 103.705Z" fill="white"/>
<path d="M18.1335 130.716C16.3718 130.809 14.8289 130.572 13.505 130.004C12.181 129.436 11.1354 128.617 10.3684 127.545C9.60133 126.473 9.17217 125.226 9.08091 123.802C8.98964 122.378 9.25648 121.094 9.88141 119.948C10.5063 118.803 11.44 117.878 12.6825 117.175C13.925 116.471 15.4271 116.072 17.1888 115.979C18.9506 115.885 20.4934 116.123 21.8174 116.69C23.1414 117.258 24.1869 118.078 24.954 119.149C25.7211 120.221 26.1502 121.469 26.2415 122.892C26.3327 124.316 26.0659 125.601 25.441 126.746C24.816 127.891 23.8823 128.816 22.6399 129.52C21.3974 130.224 19.8953 130.622 18.1335 130.716ZM18.0081 128.759C19.4545 128.683 20.6597 128.376 21.6238 127.84C22.5882 127.309 23.2996 126.62 23.7581 125.772C24.217 124.93 24.414 124.003 24.3492 122.993C24.2845 121.982 23.9702 121.08 23.4065 120.286C22.8431 119.498 22.0484 118.889 21.0223 118.458C19.9966 118.033 18.7606 117.858 17.3142 117.935C15.8679 118.012 14.6625 118.315 13.6981 118.846C12.7341 119.383 12.0226 120.072 11.5637 120.914C11.1052 121.762 10.9083 122.691 10.9731 123.702C11.0379 124.712 11.352 125.612 11.9154 126.4C12.4791 127.193 13.2738 127.803 14.2995 128.228C15.3256 128.659 16.5618 128.836 18.0081 128.759Z" fill="white"/>
<path d="M10.2826 133.491L26.664 130.107L27.9561 135.609C28.2561 136.887 28.2694 137.979 27.9959 138.886C27.729 139.797 27.2497 140.529 26.5579 141.084C25.8661 141.638 25.0377 142.015 24.0725 142.214C23.1073 142.413 22.184 142.398 21.3027 142.169C20.4226 141.945 19.6527 141.476 18.993 140.762C18.3386 140.047 17.8627 139.056 17.5652 137.789L16.6391 133.845L18.3988 133.481L19.31 137.362C19.5154 138.236 19.8323 138.907 20.2607 139.375C20.6892 139.842 21.19 140.141 21.7633 140.273C22.3431 140.409 22.961 140.409 23.6169 140.274C24.2728 140.138 24.8307 139.895 25.2907 139.545C25.752 139.199 26.0664 138.728 26.2339 138.132C26.4068 137.535 26.3893 136.794 26.1815 135.909L25.3674 132.442L10.7456 135.462L10.2826 133.491Z" fill="white"/>
<path d="M13.6335 146.864L29.4125 141.311L33.1304 150.697L31.4354 151.293L28.4635 143.791L23.1319 145.667L25.9114 152.683L24.2164 153.28L21.4369 146.264L16.0745 148.15L19.0946 155.774L17.3996 156.371L13.6335 146.864Z" fill="white"/>
<path d="M40.0113 162.573L25.229 170.401L24.2291 168.715L31.1856 154.729L31.1023 154.588L19.4959 160.735L18.4626 158.993L33.2449 151.164L34.2448 152.85L27.2761 166.88L27.3594 167.021L38.9946 160.859L40.0113 162.573Z" fill="white"/>
<path d="M38.5399 163.518L39.983 162.447L47.984 172.11L46.5409 173.181L43.1863 169.129L31.196 178.026L29.9042 176.466L41.8945 167.569L38.5399 163.518Z" fill="white"/>
<path d="M52.2303 187.002C50.9922 188.259 49.6838 189.134 48.305 189.627C46.9262 190.12 45.5764 190.247 44.2557 190.007C42.9349 189.767 41.7405 189.174 40.6724 188.229C39.6043 187.283 38.8991 186.194 38.5565 184.961C38.214 183.728 38.2552 182.443 38.6801 181.105C39.1049 179.767 39.9364 178.47 41.1745 177.213C42.4126 175.956 43.7211 175.081 45.0998 174.588C46.4786 174.095 47.8284 173.968 49.1492 174.208C50.4699 174.448 51.6644 175.041 52.7324 175.987C53.8005 176.932 54.5058 178.022 54.8483 179.255C55.1908 180.487 55.1496 181.773 54.7248 183.111C54.2999 184.448 53.4684 185.746 52.2303 187.002ZM50.7628 185.703C51.7792 184.671 52.4557 183.64 52.7922 182.609C53.1327 181.581 53.1748 180.612 52.9184 179.703C52.6661 178.797 52.1609 178.008 51.4026 177.337C50.6444 176.665 49.7779 176.239 48.8031 176.059C47.8324 175.882 46.816 175.988 45.7539 176.376C44.6958 176.769 43.6586 177.481 42.6421 178.512C41.6256 179.544 40.9471 180.574 40.6066 181.601C40.2701 182.633 40.228 183.601 40.4803 184.507C40.7367 185.417 41.244 186.207 42.0022 186.879C42.7605 187.55 43.625 187.974 44.5957 188.151C45.5704 188.332 46.5868 188.226 47.6449 187.834C48.707 187.445 49.7463 186.735 50.7628 185.703Z" fill="white"/>
<path d="M51.132 196.544L56.3229 180.211L58.097 181.255L53.6714 194.44L53.8122 194.523L64.3203 184.915L66.2915 186.075L61.9222 199.294L62.063 199.377L72.5147 189.736L74.2888 190.779L61.2131 202.474L59.4109 201.414L63.507 188.375L63.3943 188.309L52.9342 197.604L51.132 196.544Z" fill="white"/>
<path d="M84.3434 202.896C83.702 204.539 82.8476 205.853 81.7799 206.838C80.7123 207.822 79.5284 208.453 78.228 208.731C76.9277 209.009 75.6052 208.91 74.2606 208.434C72.9159 207.957 71.8468 207.208 71.0532 206.188C70.2596 205.168 69.7962 203.952 69.6628 202.542C69.5295 201.132 69.7835 199.606 70.4249 197.962C71.0662 196.319 71.9207 195.005 72.9883 194.021C74.0559 193.036 75.2399 192.405 76.5402 192.127C77.8405 191.849 79.163 191.948 80.5076 192.425C81.8523 192.901 82.9214 193.65 83.715 194.67C84.5086 195.691 84.9721 196.906 85.1054 198.316C85.2387 199.726 84.9847 201.252 84.3434 202.896ZM82.4958 202.241C83.0223 200.892 83.2383 199.672 83.1438 198.582C83.0544 197.493 82.7152 196.573 82.1263 195.822C81.5426 195.072 80.7734 194.528 79.8188 194.19C78.8642 193.851 77.9064 193.783 76.9454 193.985C75.9895 194.189 75.102 194.675 74.283 195.441C73.4692 196.209 72.799 197.268 72.2724 198.617C71.7459 199.966 71.5274 201.185 71.6168 202.274C71.7113 203.364 72.0504 204.284 72.6342 205.033C73.2231 205.785 73.9948 206.33 74.9494 206.668C75.904 207.007 76.8593 207.074 77.8151 206.87C78.7762 206.668 79.6636 206.183 80.4775 205.414C81.2965 204.648 81.9692 203.59 82.4958 202.241Z" fill="white"/>
<path d="M84.7894 210.542L88.1858 194.164L93.7378 195.222C95.0215 195.467 96.0298 195.887 96.7629 196.481C97.497 197.07 97.9835 197.78 98.2223 198.613C98.4611 199.446 98.4805 200.344 98.2804 201.309C98.0802 202.274 97.7049 203.092 97.1543 203.763C96.6037 204.434 95.875 204.905 94.9682 205.176C94.0625 205.441 92.9732 205.452 91.7002 205.209L87.2073 204.353L87.5787 202.561L92.0075 203.406C92.8847 203.573 93.6172 203.579 94.2052 203.426C94.7985 203.273 95.2641 202.985 95.6021 202.561C95.9465 202.134 96.1867 201.592 96.3227 200.936C96.4587 200.28 96.4546 199.684 96.3102 199.146C96.1659 198.609 95.8513 198.155 95.3663 197.786C94.8825 197.411 94.1966 197.139 93.3087 196.969L89.8107 196.302L86.7791 210.922L84.7894 210.542ZM94.0494 204.659L96.5672 212.788L94.2566 212.348L91.8029 204.231L94.0494 204.659Z" fill="white"/>
<path d="M99.2426 213.082L100.053 196.374L102.076 196.472L101.674 204.76L101.87 204.77L109.778 196.843L112.421 196.97L105.039 204.17L111.61 213.677L109.163 213.56L103.731 205.513L101.529 207.762L101.266 213.179L99.2426 213.082Z" fill="white"/>
<defs>
<radialGradient id="paint0_angular_3_33" cx="0" cy="0" r="1" gradientUnits="userSpaceOnUse" gradientTransform="translate(112.962 106.962) rotate(130.301) scale(103.595 85.3151)">
<stop offset="0.00149062" stop-color="#457032"/>
<stop offset="0.287809" stop-color="#457032" stop-opacity="0"/>
<stop offset="0.742991" stop-color="#457032" stop-opacity="0"/>
</radialGradient>
</defs>
</svg>
